<?xml version="1.0" encoding="utf-8"?>
<!-- Generator: Adobe Illustrator 22.1.0, SVG Export Plug-In . SVG Version: 6.00 Build 0)  -->
<svg version="1.1" id="Layer_1" xmlns="http://www.w3.org/2000/svg" xmlns:xlink="http://www.w3.org/1999/xlink" x="0px" y="0px"
	 viewBox="0 0 1000 1000" style="enable-background:new 0 0 1000 1000;" xml:space="preserve">
<style type="text/css">
	.st0{fill:#1A70AD;}
	.st1{fill:#4D4D4D;}
</style>
<g>
	<path class="st0" d="M195.9,562.7c-0.9,0-1.1,1-1.1,1.3c-0.2,1.3-0.9,2.9-1.7,3.8c-1.4,1.7-4,1.9-7.8,1.9c0,0,0,0,0,0
		c-5.3,0-6.8-0.5-7.7-1.4c-1.1-1.1-1.3-6.2-1.4-15.2l0-12.1c0-10.5,0-12.4,0.1-14.6c0.1-2.3,0.7-3.1,2.2-3.4
		c0.8-0.1,1.7-0.2,2.2-0.2c0.3,0,0.6-0.1,0.8-0.3c0.2-0.2,0.2-0.4,0.2-0.6c0-1-1.2-1-1.6-1c-1.4,0-4.3,0.1-6.1,0.2
		c-0.7,0-1.2,0-1.3,0c-0.1,0-0.4,0-0.9,0c-1.4-0.1-4.4-0.2-6.7-0.2c-0.4,0-1.6,0-1.6,1c0,0.5,0.4,0.9,1,0.9c0.6,0,1.7,0.1,2.2,0.2
		c1.8,0.4,2.4,1.1,2.5,3.4c0.1,2.1,0.1,4,0.1,14.6l0,11.9c0,6.3,0,11.8-0.3,14.6c-0.3,2-0.6,3.1-1.6,3.3c-0.7,0.2-1.5,0.3-1.9,0.3
		c-0.7,0-1,0.5-1,0.9c0,0.4,0.2,0.7,0.5,0.9c0.2,0.1,0.6,0.1,1,0.2c1.3,0,2.5-0.1,3.6-0.1c1,0,2-0.1,3-0.1c3.4,0,6.5,0.1,9.6,0.2
		c2.9,0.1,5.7,0.2,8.5,0.2c0,0,0,0,0.1,0c3.6,0,4.2-0.3,4.7-2.2c0.6-2,1-6.2,1-6.9C196.8,563.6,196.8,562.7,195.9,562.7z"/>
	<path class="st0" d="M256.4,520.9c-1.4,0-3.3,0.1-4.5,0.2c-0.6,0-1,0.1-1.2,0.1c-0.1,0-0.4,0-0.9,0c-1.4-0.1-4-0.2-6.2-0.2
		c-0.4,0-1.6,0-1.6,1c0,0.5,0.4,0.9,1,0.9c0.6,0,1.7,0.1,2.2,0.2c1.8,0.4,2.4,1.1,2.5,3.4c0.1,2.2,0.1,4,0.1,14.6l0,8.5
		c0,8.1-1.1,13-3.8,16.3c-2.4,2.9-6.4,4.7-10.2,4.7c0,0,0,0,0,0c-3.8,0-6.7-0.6-9.9-3.6c-2.4-2.3-4.9-6.1-4.9-16.4l0-9.5
		c0-10.5,0-12.4,0.1-14.6c0.1-2.4,0.6-3.2,2.1-3.4c0.8-0.1,1.2-0.2,1.6-0.2c0.6,0,1-0.4,1-0.9c0-1-1.2-1-1.6-1c-1.3,0-3.5,0.1-5,0.1
		c-0.8,0-1.5,0.1-1.7,0.1c-0.2,0-0.7,0-1.4,0c-1.6-0.1-4.2-0.2-6.3-0.2c-0.4,0-1.6,0-1.6,1c0,0.5,0.4,0.9,1,0.9
		c0.6,0,1.7,0.1,2.2,0.2c1.8,0.4,2.4,1.1,2.5,3.4c0.1,2.2,0.1,4,0.1,14.6l0,9.9c0,11,3.2,15.5,6.1,18.2c4.6,4.3,10.9,4.9,14.3,4.9
		c0,0,0,0,0,0c3.7,0,9.1-0.5,14.3-5.1c5.7-5,6.4-13.7,6.4-20.6l0-7.2c0-10.5,0-12.4,0.1-14.6c0.1-2.3,0.6-3.1,2.1-3.4
		c0.8-0.1,1.2-0.2,1.6-0.2c0.6,0,1-0.4,1-0.9c0-0.3-0.1-0.6-0.3-0.7C257.4,520.9,256.8,520.9,256.4,520.9z"/>
	<path class="st0" d="M313.4,571.1c-0.4,0-1.4-0.1-2.2-0.4c-1.9-0.6-2.7-1.6-3.8-2.9c-1-1.3-7.9-12.8-11.5-19
		c-1.2-2-2.1-3.6-2.6-4.3l10.7-16.1l0.1-0.2c1.8-2.7,3.1-4.5,4.8-5.1c0.7-0.2,1.6-0.3,2.1-0.3c0.4,0,0.8-0.1,1-0.3
		c0.2-0.2,0.3-0.4,0.3-0.6c0-0.3-0.2-1-1.6-1c-1.5,0-3.3,0.1-4.4,0.2c-0.6,0-1.1,0.1-1.3,0.1c-0.2,0-0.6,0-1.2,0
		c-1.2-0.1-3.1-0.2-4.8-0.2c0,0,0,0,0,0c-1.4,0-1.7,0.6-1.7,1c0,0.2,0.1,1,1.1,1c0.3,0,1.3,0,1.9,0.2c0.5,0.2,0.8,0.5,0.8,0.7
		c0,0.7-0.1,1.2-0.6,2.2c-0.6,1.3-7,11.6-9.5,15.2c-3-4.9-5.6-9.6-8.7-15.5c-0.4-0.7-0.6-1.4-0.6-2c0-0.5,0.3-0.6,0.5-0.7
		c0.5-0.2,1.3-0.2,1.7-0.2c0.4,0,0.7-0.1,0.8-0.3c0.1-0.1,0.3-0.3,0.3-0.7c0-0.3-0.1-0.5-0.2-0.6c-0.3-0.3-0.7-0.3-1.4-0.3
		c0,0,0,0,0,0c-1.5,0-3.6,0.1-4.9,0.2c-0.7,0-1.2,0.1-1.4,0.1c-0.2,0-1,0-2-0.1c-2-0.1-4.7-0.1-5.9-0.1c-0.6,0-1.7,0-1.7,1
		c0,0.5,0.3,1,1.1,1c0,0,0,0,0,0c0.4,0,1.7,0.1,2.7,0.4c2.1,0.7,3.4,2.5,5,5.2l10.7,18l-12.1,19.1c-2.2,3.5-3.5,4.8-5.3,5.3
		c-0.9,0.2-1.8,0.3-2.4,0.3c-0.6,0-1,0.4-1,1c0,0.3,0.1,1,1.2,1c0,0,0,0,0,0c1.5,0,3.4-0.1,4.7-0.2c0.7,0,1.2-0.1,1.4-0.1
		c0.2,0,1,0,1.9,0.1c1.5,0.1,3.6,0.1,4.6,0.1c1.2,0,1.3-0.7,1.3-1c0-0.6-0.4-1-1-1c-0.3,0-0.8-0.1-1.2-0.1c-0.3-0.1-0.7-0.3-0.7-0.8
		c0-0.6,0.3-1.8,0.8-2.7l10.1-17.2c3.5,5.9,7.5,12.8,11.2,19.4c0.2,0.3,0.2,0.6,0.2,0.9c-0.1,0.2-0.3,0.3-0.2,0.3
		c-0.5,0.1-0.8,0.5-0.8,1c0,0.9,1.1,1,2.6,1c3.5,0.1,6.7,0.1,10.9,0.1c0.5,0,0.9-0.1,1.2-0.4c0.2-0.2,0.3-0.4,0.3-0.7
		C314.4,571.6,314.1,571.1,313.4,571.1z"/>
	<path class="st0" d="M355.6,562.9c-0.8,0-1,0.9-1.1,1.4c-0.6,3-1.3,4.1-3.1,4.6c-1.8,0.5-3.9,0.6-6,0.6c-2.8,0-4.4-0.2-5.4-0.6
		c-1.3-0.5-1.8-1.6-1.9-4.5c0-1,0-5.4,0-8.5c0-1.3,0-2.4,0-3l0-5.9c0,0,0,0,0,0c1.2,0,7.8,0.1,9.6,0.3c2.4,0.3,2.9,1.2,3.1,1.9
		c0.2,0.5,0.2,1.1,0.2,1.7c0,0.5,0,1,0.4,1.3c0.2,0.2,0.4,0.3,0.6,0.2c0.8,0,0.9-1.1,1-1.5c0-0.3,0-0.7,0.1-1.2c0-0.9,0.1-2,0.2-3.4
		c0.1-1.4,0.3-2.3,0.4-3c0.1-0.4,0.1-0.7,0.1-0.9c0-1-0.7-1-0.8-1c-0.5,0-0.8,0.4-1.1,0.8l-0.1,0.1c-0.5,0.6-1.2,0.8-3,1
		c-1.3,0.1-7.9,0.1-10.6,0.1c0,0,0-0.1,0-0.2l0-18.7c0-0.1,0-0.1,0-0.2c1.3,0,8.1,0.1,9.1,0.2c3.2,0.3,4.1,1.1,4.5,2.2
		c0.2,0.5,0.3,1.3,0.3,2.1c0,1.2,0.7,1.4,1,1.4c0.3,0,0.9-0.2,1-1.6c0.1-1.2,0.2-2.2,0.2-3l0.1-1c0.1-1.1,0.3-1.9,0.4-2.4
		c0.1-0.3,0.1-0.6,0.1-0.8c0-1-0.6-1.1-0.8-1.1c-0.3,0-0.5,0.1-1,0.3c-0.2,0.1-1.1,0.3-2.9,0.4c-0.9,0-6.3,0.1-15.1,0.1l-0.3,0
		c-4.3-0.2-6.1-0.2-7.7-0.2c-0.4,0-1.6,0-1.6,1c0,0.7,0.8,0.8,1.3,0.9c0.2,0,0.5,0,0.7,0.1c0.4,0,0.9,0.1,1.2,0.1
		c1.8,0.4,2.4,1.1,2.5,3.4c0.1,2.2,0.1,4,0.1,14.6l0,11.9c0,6-0.1,9.5-0.1,12.1c-0.1,5-1,5.6-2.1,5.9c-0.3,0.1-0.6,0.1-1,0.1l-0.5,0
		c-1,0.2-1.2,0.6-1.2,0.9c0,1,1.2,1.1,1.6,1c1,0,2,0,2.9-0.1c0.7-0.1,1.5-0.1,2.1-0.1c1.8,0,3.8,0.1,5.8,0.1c0.9,0,1.8,0.1,2.6,0.1
		c0.7,0,1.4,0,2,0.1c1.9,0.1,4.1,0.1,7.8,0.1c0,0,0.1,0,0.1,0c2.7,0,3.6,0,4.1-2.1c0.3-1.4,0.9-6.1,0.9-6.7c0-0.4,0-1-0.3-1.3
		C356,563,355.9,562.9,355.6,562.9z M338.1,543.6L338,544l0-0.5C338,543.5,338.1,543.6,338.1,543.6z"/>
	<path class="st0" d="M419.9,543l-1.9-1.5c-6.3-4.9-8.1-7.3-8.1-11c0-2.2,0.8-4.1,2.2-5.4c1.4-1.3,3.4-1.9,5.6-1.9c0,0,0,0,0,0
		c5.6,0,7.5,2.3,8,3.3c0.4,0.7,0.8,2.4,0.8,3.2c0.1,0.5,0.2,1.3,1,1.3c0,0,0,0,0,0c0.2,0,0.6-0.1,0.8-0.7c0.1-0.3,0.1-0.7,0.1-1.3
		c0-3.6,0.2-5.7,0.2-6.7c0-0.3,0-0.4,0-0.5c0-0.6-0.4-1-1.2-1c-0.5,0-0.9,0-2.3-0.3c-2-0.5-4-0.7-6.4-0.7c0,0,0,0,0,0
		c-8.7,0-14.5,5.1-14.5,12.7c0,4.6,1.5,9,9,15.1l3,2.5c6,4.9,7.6,7.5,7.6,11.8c0,2.1-0.8,4.3-2.3,5.8c-1.7,1.8-4.1,2.7-6.9,2.7
		c0,0,0,0,0,0c-2.5,0-8.3-0.6-9.5-6.5c-0.2-0.9-0.2-1.8-0.2-2.4c0-0.4,0-1.2-1-1.2c-0.9,0-1,1-1,1.6c0,0.2,0,0.5-0.1,0.8
		c-0.1,1.4-0.3,3.7-0.3,6.4c0,1.8,0.1,2.4,1.3,3l0,0c2.6,1.3,5.6,1.9,9.3,1.9c0,0,0,0,0,0c4.1,0,7.8-1,10.5-2.9
		c4.4-3.1,6-8.1,6-11.7C430,554.1,428.4,549.7,419.9,543z"/>
	<path class="st0" d="M485.7,520.3c-0.2,0-0.4,0-0.7,0.1c-0.3,0.1-0.7,0.2-1.3,0.2c-1.2,0.2-2.8,0.3-4.7,0.3l-25.4,0
		c-0.8,0-3.4-0.1-5.3-0.3c-1.1-0.1-1.7-0.4-2.2-0.6c-0.3-0.1-0.6-0.2-0.8-0.2c-0.6,0-0.9,0.8-1.1,1.5l0,0.1c0,0.1-1.5,6.4-1.5,7.2
		c0,0.8,0.5,1.1,0.8,1.1c0.7,0,1-0.5,1.1-1c0.2-0.5,0.4-0.9,1.1-2c1-1.4,2.4-1.9,6.5-1.9c1.7,0,3.4-0.1,5-0.1c1.5,0,3,0,4.5-0.1
		l0,28.1c0,6.3,0,11.8-0.3,14.6c-0.3,2-0.6,3.1-1.6,3.3c-0.7,0.2-1.4,0.3-1.9,0.3c-0.7,0-1,0.5-1,0.9c0,0.4,0.2,0.7,0.5,0.9
		c0.2,0.1,0.6,0.2,1,0.2c0,0,0,0,0,0c1.5,0,4-0.1,5.5-0.2c0.6,0,1,0,1.1,0c0.1,0,0.4,0,0.8,0c1.5,0.1,4.6,0.2,7.5,0.2
		c0.6,0,1.1-0.1,1.4-0.4c0.2-0.2,0.3-0.4,0.3-0.6c0-0.5-0.3-0.9-1-0.9c-0.6,0-2-0.1-3-0.3c-1.6-0.2-2-1.3-2.2-3.3
		c-0.3-2.8-0.3-8.3-0.3-14.6l0-28.1c1.2,0,2.5,0,3.7,0.1c1.4,0,2.9,0,4.3,0.1c6.6,0.1,7.7,1.7,7.8,3.2c0,0.2,0,0.3,0,0.4
		c0,0.1,0,0.2,0,0.3c0,0.6,0.1,1.6,1,1.6c0.3,0,0.6-0.2,0.8-0.5c0.1-0.2,0.2-0.5,0.2-0.9c0-0.3,0-1.1,0.1-2.2c0.1-1.7,0.1-4,0.1-5.3
		C486.6,521.2,486.6,520.3,485.7,520.3z"/>
	<path class="st0" d="M541,571c-0.3,0-1.4,0-2.5-0.4c-1.4-0.4-3.2-1.6-5.5-7.2c-3-7.3-9.2-23.7-12.9-33.4c-1.5-3.9-2.6-6.7-2.9-7.4
		c-0.8-2.1-1.2-2.8-2-2.8c-0.8,0-1.2,0.8-2,3l-15.4,42.1c-1.3,3.6-2.6,5.7-5.3,6c-0.5,0.1-1.1,0.1-1.6,0.1c-1.3,0-1.4,0.6-1.4,0.9
		c0,1,1.3,1,1.8,1c2.1,0,4.5-0.1,6.1-0.2c0.8,0,1.3,0,1.6-0.1c0.3,0,0.9,0,1.6,0.1c1.1,0.1,2.4,0.1,3.4,0.1c0,0,0,0,0,0
		c0.7,0,1.2-0.1,1.5-0.4c0.2-0.2,0.3-0.4,0.3-0.6c0-0.9-1-0.9-1.4-0.9h-0.6c0,0,0,0,0,0c-0.5,0-1-0.1-1.4-0.4
		c-0.4-0.3-0.6-0.6-0.6-1.1c0-1.2,0.3-2.7,0.9-4.4l4-12c0.1-0.2,0.2-0.2,0.2-0.2l14.6,0c0,0,0,0,0.1,0.1l6.3,16.7
		c0.2,0.6,0.1,0.9,0.1,1c0,0.1-0.1,0.2-0.1,0.2c-0.8,0.2-0.9,0.7-0.9,1c0,0.8,0.9,0.9,2.2,1l0.3,0c4.3,0.1,8.9,0.1,10.6,0.1
		c1.5,0,1.9-0.6,1.9-1C542.3,571.6,542.1,571,541,571z M520.5,549.5l-12.3,0l5.9-18.1c0,0,0-0.1,0-0.1c0,0,0,0.1,0,0.1L520.5,549.5z
		 M520.8,549.5C520.8,549.5,520.8,549.5,520.8,549.5v0.5V549.5z"/>
	<path class="st0" d="M599.9,546.5C599.9,546.5,599.9,546.5,599.9,546.5c-1.5,0-4,0.1-5.5,0.2c-0.6,0-1,0-1.1,0c-0.1,0-0.4,0-0.9,0
		c-1.4-0.1-4.5-0.2-6.7-0.2c-0.3,0-1.6,0-1.6,1c0,0.2,0.1,0.4,0.3,0.6c0.2,0.2,0.5,0.3,0.8,0.3c0,0,0,0,0,0c0.6,0,1.7,0.1,2.2,0.2
		c2.3,0.6,2.7,0.9,2.7,6.5l0,11.5c0,0.9-0.3,1.5-1.1,1.9c-1.6,0.9-5,1.4-7.5,1.4c0,0,0,0,0,0c-6.7,0-12.5-2.4-17.4-7.1
		c-2.4-2.4-7-9.2-7-18.4c0-7.3,2.4-13.6,6.5-16.8c4.9-3.8,9.7-4.4,14.2-4.4c0,0,0,0,0,0c8.3,0,13.8,2.7,15.5,5.2
		c1.1,1.8,1.3,3.8,1.4,4.3c0.1,0.6,0.2,1.5,1,1.5c1.1,0,1.1-1.2,1.1-1.9c0-4.9,0.2-7.2,0.4-8.5c0.1-0.5,0.1-0.8,0.1-1.1
		c0-0.4-0.2-1-1.3-1.1c-1.8-0.1-4.1-0.4-5.4-0.7c-0.2,0-5.6-1.2-10.5-1.2c0,0,0,0,0,0c-5.3,0-12.1,0.5-18.3,4.4
		c-7.2,4.6-11.5,13-11.5,22.7c0,9.2,4.4,16.4,8.2,19.7c5.6,4.9,13.2,7.4,22.6,7.4c0,0,0,0,0,0c4.2,0,10.3-0.8,14.6-3.1
		c1.1-0.6,1.1-1,1.1-4.1l0-7.6c0-2.8,0-4.9,0.1-7c0.1-2.3,0.6-3.1,2.1-3.4c0.8-0.1,1.2-0.2,1.6-0.2c0.6,0,1-0.4,1-0.9
		c0-0.3-0.1-0.6-0.3-0.7C600.9,546.5,600.3,546.5,599.9,546.5z"/>
	<path class="st0" d="M634.8,570.9c-0.4,0-1.7-0.1-2.7-0.3c-1.6-0.2-2-1.3-2.2-3.3c-0.3-2.8-0.3-8.3-0.3-14.6l0-11.9
		c0-10.5,0-12.4,0.1-14.6c0.1-2.3,0.6-3.1,2.1-3.4c0.8-0.1,1.2-0.2,1.6-0.2c0.6,0,1-0.4,1-0.9c0-1-1.2-1-1.6-1c-1.5,0-4,0.1-5.6,0.2
		c-0.6,0-1,0-1.1,0s-0.5,0-1.1,0c-1.5-0.1-4.1-0.2-5.8-0.2c-0.4,0-1.6,0-1.6,1c0,0.5,0.4,0.9,1,0.9c0.5,0,1.3,0.1,2,0.3
		c0.9,0.2,1.8,0.8,1.9,3.3c0.1,2.2,0.1,4.1,0.1,14.6l0,12c0,6.3,0,11.8-0.3,14.6c-0.3,1.9-0.6,3.2-1.6,3.4c-0.6,0.1-1.3,0.2-1.7,0.2
		c-1.1,0-1.2,0.6-1.2,0.9c0,0.3,0.1,0.6,0.3,0.7c0.3,0.3,0.8,0.4,1.3,0.4c0,0,0,0,0,0c1.5,0,4-0.1,5.5-0.2c0.6,0,1,0,1.1,0
		c0.1,0,0.4,0,0.8,0c1.5,0.1,4.7,0.2,7.5,0.2c0,0,0,0,0.1,0c1.3,0,1.5-0.7,1.5-1C636.1,571.7,636.1,570.9,634.8,570.9z"/>
	<path class="st0" d="M705.6,520.6c-1.8,0-3.5,0.1-4.5,0.2c-0.5,0-1,0.1-1.2,0.1c-0.2,0-0.8,0-1.4-0.1c-1.4-0.1-3.5-0.1-5.6-0.1
		c-0.7,0-1.9,0-1.9,1c0,0.4,0.3,1,1.4,1c0,0,0,0,0,0c0.3,0,1.4,0,2.8,0.3c1.6,0.4,2.2,1.3,2.3,6l0.7,33.1c-1.2-1.2-2.9-3.2-5-5.5
		c-3-3.3-6.8-7.4-10.3-11.2c-10.5-11.3-20.6-22.1-21.6-23.2c-0.2-0.2-0.4-0.4-0.6-0.6c-0.9-1-1.6-1.7-2.1-1.7h0
		c-0.5,0-0.9,0.4-1.1,1.1c-0.1,0.5-0.2,1.4-0.2,2.8c0,6.2,0,7.5,0,9.8c0,2.4-0.1,6.1-0.1,19l0,10c0,6.1-0.3,7.8-1.7,8.1
		c-1.1,0.4-2.4,0.4-2.6,0.4c-0.7,0-1,0.5-1,0.9c0,0.4,0.1,0.6,0.3,0.7c0.3,0.3,0.8,0.3,1.3,0.3c2.1,0,4.2-0.1,5.4-0.2
		c0.5,0,0.9,0,1.1,0c0.2,0,0.5,0,1,0c1.2,0.1,3.4,0.2,6.1,0.2c0,0,0,0,0.1,0c0.5,0,1.7,0,1.7-1c0-0.5-0.3-0.9-1-0.9
		c-0.2,0-1.8,0-3.2-0.4c-1.4-0.4-2.1-1.7-2.3-7.4l-0.9-31.1c3,3.4,9.8,10.9,16.8,18.4c7.2,7.8,17,17.7,17.7,18.4
		c3.8,3.8,4.5,4.5,5.3,4.5c0.8,0,0.9-0.8,1-1.2c0.1-0.7,0.1-1.8,0.1-4.2l0.1-39.6c0-4.8,0.5-5.3,1.9-5.6c0.8-0.1,1.2-0.2,1.8-0.3
		c0.8-0.1,1.2-0.4,1.2-1c0-0.2-0.1-0.5-0.2-0.6C706.8,520.7,706.3,520.6,705.6,520.6z"/>
	<path class="st0" d="M772.5,546.4c-1.4,0-4,0.1-5.5,0.2c-0.6,0-1,0-1.1,0c-0.1,0-0.4,0-0.9,0c-1.4-0.1-4.4-0.2-6.7-0.2
		c-0.4,0-1.6,0-1.6,1c0,0.5,0.4,0.9,1,0.9c0.6,0,1.7,0.1,2.2,0.2c2.3,0.6,2.7,0.9,2.7,6.5l0,11.5c0,0.9-0.3,1.5-1.1,1.9
		c-1.6,0.9-5,1.4-7.5,1.4c0,0,0,0,0,0c-6.7,0-12.5-2.4-17.4-7.1c-2.4-2.4-7-9.2-7-18.4c0-7.3,2.4-13.6,6.5-16.8
		c4.9-3.8,9.7-4.4,14.2-4.4c0,0,0,0,0,0c8.3,0,13.8,2.7,15.5,5.2c1.1,1.8,1.3,3.8,1.4,4.3c0.1,0.6,0.2,1.5,1,1.5
		c1.1,0,1.1-1.2,1.1-1.9c0-4.9,0.2-7.2,0.4-8.5c0.1-0.5,0.1-0.8,0.1-1.1c0-0.4-0.2-1-1.3-1.1c-1.8-0.1-4.1-0.4-5.4-0.7
		c-0.2,0-5.6-1.2-10.5-1.2c0,0,0,0,0,0c-5.3,0-12.1,0.5-18.3,4.4c-7.2,4.6-11.5,13-11.5,22.7c0,9.2,4.4,16.4,8.2,19.7
		c5.6,4.9,13.2,7.4,22.6,7.4c0,0,0,0,0,0c4.2,0,10.3-0.8,14.6-3.1c1.1-0.6,1.1-1,1.1-4.1l0-7.6c0-2.8,0-4.9,0.1-7
		c0.1-2.3,0.6-3.1,2.1-3.4c0.8-0.1,1.1-0.2,1.6-0.2c0.6,0,1-0.4,1-0.9C774.1,546.4,772.9,546.4,772.5,546.4z"/>
</g>
<path class="st0" d="M775.4,419.9c-0.3-1.2-1.1-1.6-2.2-1.2c-1,0.7-1.3,1.4-1,2.2c2,5.8,1.6,11.3-1.2,16.4c-0.3,0.7-0.7,1.3-1.2,2
	c-0.3,0.7-0.8,1.4-1.4,2.1c-0.6,0.7-1.3,1.5-2.1,2.1c-14.3,11.5-35.6,10.5-64-2.7c-2-1-4.4-2.2-7.2-3.6c-2.8-1.4-6.4-3.4-10.7-6
	c-4.3-2.6-9.5-5.9-15.4-9.8c-6-4-13-9-20.9-14.9c3.5-9.3,4.7-21.4,3.7-36.4c-0.7-9.1-1.8-17.5-3.5-25.2c-0.5-2.3-1.1-4.7-1.7-7.1
	c-0.7-2.4-1.2-4.6-1.7-6.6c-0.7-2.3-1.2-4.6-1.7-6.7c2.2-3.5,4.2-7.1,6.1-10.8c1.9-3.7,3.5-7.5,4.9-11.3c0.2-0.2,0.4-0.7,0.6-1.7
	s0.5-2.2,0.9-3.5c0.3-2.7,0.2-4.6-0.5-5.9c-0.7-1.2-1.5-2-2.5-2.4c-2-0.7-4.2-0.2-6.5,1.2c-0.7,0.5-1.9,1.6-3.6,3.2
	c-1.7,1.7-3.5,4.2-5.2,7.7c-1.7,3.5-3.2,7.9-4.2,13.3c-1.1,5.4-1.2,12-0.4,19.8c-5,7.1-9.5,13-13.6,17.7c-1.7,1.9-3,3.5-4.1,4.6
	c-0.1,0.1-0.1,0.1-0.2,0.2c-2.5,2.8-4.8,5.5-7,8.1c-2.2,2.6-4.5,5.2-7,7.8c-2.5,2.7-5.2,5.6-8.2,8.7c-3,3.2-6.6,6.8-10.7,11
	c-0.2,0.2-2,2-5.6,5.5c-3.6,3.5-7.9,7.1-13.1,10.7c-3.8,2.7-8.1,5-12.7,7.1c-4.7,2.1-9.1,2.7-13.2,1.9c-0.5-0.2-1-0.5-1.6-1.1
	c-0.6-0.6-1-1.7-1.2-3.4c-0.3-1.7-0.3-4,0-7c0.3-3,1.1-6.9,2.6-11.7c1.8-5.8,5-13.2,9.6-22c4.4-8.6,10.1-18.9,17-30.7
	c2.1-2,4.3-3.9,6.4-5.9c14-11.8,25.7-22.4,35-31.7c10.6-10.6,18.9-19.4,24.9-26.4c6.8-7.6,11.6-13.6,14.4-17.8
	c2.8-4.2,4.4-6.5,4.7-6.8c6.6-10,8.6-16.9,6-20.9c-0.7-0.8-1.4-1.4-2.1-1.9c-0.7-0.4-1.5-0.7-2.4-0.9c-0.8-0.2-1.7-0.3-2.7-0.3
	c-7,0.8-15.1,4.8-24.4,12c-4,3-8.4,6.9-13.3,11.7c-4.9,4.8-10.2,10.8-15.9,17.8c-5.7,7.1-11.8,15.4-18.3,24.9
	c-6.5,9.5-13.4,20.5-20.7,33c-1.3,2.3-2.8,5-4.5,8c-1.3,2.5-2.9,5.4-4.6,8.7c-1.7,3.3-3.5,6.9-5.4,10.7c-8.1,7.5-17.5,15.7-28,24.7
	c-4,3.4-8.2,6.9-12.5,10.5c-14.8,11.5-29.4,22-43.9,31.6c-24.1,16.1-47.3,29.4-69.5,39.8c-22.3,10.4-43.8,18.1-64.5,22.9
	c-23.7,5.4-46.1,7.1-67.1,5.1c-22.5-2.4-43.6-9.1-63.3-20.3c-2.6-1.6-4.9-3.2-6.8-4.7c-1.9-1.5-4-3.4-6.2-5.6
	c-2.3-2.2-4.5-4.8-6.8-7.8c-2.7-3.6-4.8-7.3-6.3-11.2c-1.6-3.9-2.8-7.9-3.7-12.2c-1.9-10.2-0.9-21.4,2.8-33.7
	c4.4-14.1,12.8-25.3,25.1-33.7c5.3-3.6,11.1-6.5,17.4-8.6c6.2-2.1,12.6-3.4,19-3.8c11.4-0.7,21,0.9,28.7,4.8c2.3,1.3,4,3,5.2,5.2
	c1.2,2.1,2.2,4.3,2.9,6.4c0.8,2.1,1.5,4,2.1,5.6c0.6,1.6,1.5,2.5,2.5,2.5c1.3,0,2.5-0.5,3.4-1.5c0.3-0.5,0.5-1.1,0.6-1.8
	c0.3-1.9,0-3.7-1-5.7l0-0.5c-3.1-6.4-8.6-11.3-16.6-14.6c-8-3.3-17.3-4.6-27.7-3.8c-7,0.4-13.7,1.8-20.3,4
	c-6.6,2.2-12.6,5.3-18.1,9.1c-12.7,8.6-21.6,20.5-26.4,35.5c-3.9,12.7-4.8,24.5-2.7,35.5c1.6,9.2,5.2,17.5,10.7,24.8
	c2.3,3.1,4.5,5.9,6.8,8.2c2.3,2.3,4.4,4.2,6.5,5.7c2,1.5,3.7,2.6,5,3.4c1.3,0.8,2.1,1.3,2.3,1.4c19.7,11.5,41.3,18.3,64.8,20.6
	c10.9,1.2,22.8,1.3,35.5,0.2c5.3-0.5,10.7-1.1,16.1-2c5.4-0.9,10.9-2,16.5-3.3c41.8-9.6,86.9-30.6,135.3-63
	c10.6-7.1,21.2-14.7,32-22.7c5.6-4.2,11.2-8.5,16.9-13c2.6-2,5.1-4.1,7.7-6.2c7-5.7,14.1-11.6,21.2-17.7c-1.5,3.6-3,7.4-4.4,11.1
	c-1.7,4.5-3.1,8.8-4.2,13c-1.2,4.1-1.9,8.1-2.2,11.8c-0.3,3.7-0.2,7,0.5,9.8c0.5,1.8,1.4,3.5,2.7,5c1.2,1.3,2.7,2.5,4.5,3.4
	c1.8,0.9,4.2,1.4,7.2,1.4c2.5,0,5-0.3,7.5-1c5.5-1.5,11.3-4.5,17.4-9c5.3-3.7,9.8-7.2,13.3-10.7c3.6-3.5,5.5-5.4,5.9-5.7
	c4.1-4.2,7.7-7.8,10.7-11c3-3.2,5.7-6.1,8.2-8.8c2.5-2.7,4.8-5.4,7-7.9c1.8-2.1,3.7-4.2,5.7-6.5c0.7-0.7,1.7-1.8,3.2-3.4
	c2.5-2.7,5.5-6.4,9-11.1c1-1.2,2.1-2.7,3.2-4.5c0.7-0.8,1.3-1.7,2-2.5c0.2,1.7,0.4,3.3,0.7,5c0.2,1.3,0.3,2.7,0.5,4.1
	c0.2,1.4,0.3,2.5,0.5,3.4c0.8,6,1.5,11.2,1.9,15.6c0.4,4.4,0.7,8.4,0.7,12c0.1,3.6,0,6.8-0.4,9.7c-0.3,2.9-0.8,5.7-1.5,8.3
	c-0.7-0.5-1.5-1.1-2.5-1.9s-2-1.5-3-2.4c-1.2-0.8-2.4-1.7-3.7-2.5c-3.5-2.3-7.1-4.4-11-6.1c-3.8-1.7-7.6-2.2-11.5-1.4
	c-4.8,0.8-8.7,3.7-11.7,8.7c-3.2,5-4,10.4-2.5,16.2c0.5,1.5,1.2,3.1,2,4.7c0.8,1.3,1.7,2.8,2.7,4.4c1,1.6,2.4,3,4.2,4.4
	c1.8,1.3,4.9,2.9,9.3,4.6c4.4,1.7,10.1,2.1,17.1,1.1c3.2-0.5,5.9-1.4,8.2-2.7c2.3-1.3,4.4-2.8,6.1-4.5c1.7-1.7,3.2-3.4,4.4-5.2
	c1.2-1.8,2.1-3.4,2.7-4.7c3.3,2.5,7,5.2,11.1,8.1c4.1,2.9,8.4,5.9,13.1,8.8c4.6,3,9.5,6,14.6,9c5.1,3,10.2,5.7,15.3,8.2
	c15.9,7.5,29.7,11.2,41.3,11.2c10.3,0,19.1-3,26.4-9c0.2-0.2,0.8-0.8,2-2c1.2-1.2,2.3-2.8,3.5-5c1.2-2.2,2.1-4.9,2.7-8.1
	C777.4,428,776.9,424.3,775.4,419.9z M583.9,308.5c4.7-7.1,8.7-12.9,11.8-17.2c2.2-2.8,4.8-6.4,8-10.6c3.2-4.2,6.6-8.6,10.2-13.2
	c3.7-4.6,7.4-9,11.2-13.4c3.8-4.4,7.5-8.2,11-11.5c3.5-3.2,6.6-5.6,9.5-7.2c2.8-1.6,5.1-1.8,7-0.6c0.8,3.2-1.3,8.6-6.5,16.4
	c-1.8,2.5-3.7,5.1-5.7,8c-1.8,2.3-3.9,4.9-6.1,7.8c-2.2,2.9-4.6,5.8-7.1,8.6c-9.1,10.5-18.8,20.5-28.9,30
	c-5.5,5.2-10.8,10.1-16,14.7l-0.1-0.9c-3.6,3.5-7.4,7.1-11.2,10.8c-0.2,0.2-0.5,0.4-0.7,0.6c-0.2,0.2-0.5,0.4-0.7,0.6
	C574.4,323.2,579.1,315.6,583.9,308.5z M613.1,422.7c-1.8-0.2-3.4-0.5-4.9-0.9c-1.4-0.4-2.7-0.9-3.9-1.4c-1.3-0.7-2.5-1.3-3.5-2
	c-3.8-2.7-6.3-6.4-7.5-11.2c-1.3-5.1-0.7-9.6,2-13.4c2.5-4.3,5.6-6.7,9.5-7.2c1.2-0.3,2.6-0.3,4.2,0c1.3,0.3,3,0.8,5,1.5
	c2,0.7,4.3,1.7,7,3.2c1.7,1,3.3,2.1,5,3.2c1.3,1,2.8,2.1,4.4,3.2c1.6,1.2,3,2.2,4.4,3.2C629.9,416.1,622.7,423.3,613.1,422.7z
	 M642.2,302.6c1.3-4.3,3.1-7.4,5.2-9.2c0.3-0.3,0.7-0.7,1.2-1c0.8-0.5,1.6-0.7,2.2-0.5c0.5,0.3,0.8,0.8,1,1.5
	c0.2,0.7,0.2,1.6,0.1,2.7c-0.1,1.2-0.5,2.8-1.4,5c-2.2,6.1-5.1,12.3-8.7,18.4C640.8,312.6,640.9,306.9,642.2,302.6z"/>
<rect x="524" y="439" class="st1" width="16.3" height="16.3"/>
<rect x="546.7" y="439" class="st1" width="16.3" height="16.3"/>
<rect x="524" y="461.7" class="st1" width="16.3" height="16.3"/>
<rect x="546.7" y="461.7" class="st1" width="16.3" height="16.3"/>
<g>
	<path d="M177.5,619.2v11.1h-3.8v-11.1l-10.3-16.8h3.3c0.3,0,0.6,0.1,0.8,0.2s0.4,0.4,0.5,0.6l6.4,10.9c0.2,0.5,0.4,0.9,0.6,1.3
		c0.2,0.4,0.4,0.8,0.5,1.2c0.1-0.4,0.3-0.8,0.5-1.2c0.2-0.4,0.4-0.8,0.6-1.3l6.4-10.9c0.1-0.2,0.3-0.4,0.5-0.6
		c0.2-0.2,0.5-0.3,0.8-0.3h3.3L177.5,619.2z"/>
	<path d="M215.3,630.4h-2.9c-0.3,0-0.6-0.1-0.8-0.3c-0.2-0.2-0.4-0.4-0.5-0.6l-2.6-6.8h-12.6l-2.6,6.8c-0.1,0.2-0.2,0.4-0.4,0.6
		c-0.2,0.2-0.5,0.3-0.8,0.3H189l11.2-28h3.8L215.3,630.4z M207.4,620l-4.4-11.4c-0.1-0.3-0.3-0.7-0.4-1.2c-0.1-0.4-0.3-0.9-0.4-1.4
		c-0.3,1.1-0.6,1.9-0.8,2.6l-4.4,11.4H207.4z"/>
	<path d="M241.8,624.6c0.2,0,0.4,0.1,0.5,0.3l1.5,1.6c-1.1,1.3-2.5,2.4-4.2,3.1s-3.6,1.1-5.9,1.1c-2,0-3.8-0.3-5.5-1
		c-1.6-0.7-3-1.7-4.2-2.9c-1.2-1.3-2.1-2.8-2.7-4.5c-0.6-1.8-1-3.7-1-5.8c0-2.1,0.3-4,1-5.8c0.7-1.8,1.6-3.3,2.8-4.5
		c1.2-1.3,2.6-2.2,4.3-2.9s3.5-1,5.6-1c2,0,3.7,0.3,5.3,1c1.5,0.6,2.9,1.5,4,2.6l-1.2,1.7c-0.1,0.1-0.2,0.2-0.3,0.3
		c-0.1,0.1-0.3,0.1-0.5,0.1c-0.2,0-0.5-0.1-0.9-0.4c-0.3-0.3-0.8-0.5-1.3-0.8c-0.5-0.3-1.2-0.6-2-0.8c-0.8-0.3-1.8-0.4-3-0.4
		c-1.4,0-2.8,0.3-4,0.8c-1.2,0.5-2.2,1.2-3.1,2.2s-1.5,2.1-2,3.5c-0.5,1.4-0.7,2.9-0.7,4.6c0,1.7,0.3,3.3,0.8,4.7
		c0.5,1.4,1.2,2.5,2.1,3.5c0.9,0.9,1.9,1.7,3.1,2.2c1.2,0.5,2.5,0.7,3.8,0.7c0.8,0,1.6,0,2.3-0.1s1.3-0.3,1.9-0.5s1.1-0.5,1.6-0.8
		c0.5-0.3,1-0.7,1.5-1.1C241.3,624.7,241.5,624.6,241.8,624.6z"/>
	<path d="M274.8,602.4v28H271v-12.7h-15.1v12.7h-3.8v-28h3.8v12.5H271v-12.5H274.8z"/>
	<path d="M304.8,605.6h-9.1v24.8h-3.8v-24.8h-9.1v-3.2h21.9V605.6z"/>
	<path d="M347,630.4H344c-0.3,0-0.6-0.1-0.8-0.3c-0.2-0.2-0.4-0.4-0.5-0.6l-2.6-6.8h-12.6l-2.6,6.8c-0.1,0.2-0.2,0.4-0.4,0.6
		c-0.2,0.2-0.5,0.3-0.8,0.3h-2.9l11.2-28h3.8L347,630.4z M339.1,620l-4.4-11.4c-0.1-0.3-0.3-0.7-0.4-1.2c-0.1-0.4-0.3-0.9-0.4-1.4
		c-0.3,1.1-0.6,1.9-0.8,2.6l-4.4,11.4H339.1z"/>
	<path d="M377.2,602.4v28h-1.9c-0.3,0-0.5-0.1-0.8-0.2c-0.2-0.1-0.4-0.3-0.6-0.5l-16.2-21.1c0,0.3,0,0.6,0.1,1c0,0.3,0,0.6,0,0.9
		v19.9h-3.3v-28h2c0.2,0,0.3,0,0.4,0s0.2,0.1,0.3,0.1c0.1,0,0.2,0.1,0.3,0.2c0.1,0.1,0.2,0.2,0.3,0.3l16.2,21.1c0-0.3,0-0.7-0.1-1
		c0-0.3,0-0.6,0-0.9v-19.8H377.2z"/>
	<path d="M412.5,616.4c0,2.1-0.3,4-1,5.7c-0.7,1.7-1.6,3.2-2.8,4.4c-1.2,1.2-2.7,2.2-4.4,2.8c-1.7,0.7-3.6,1-5.6,1h-10.4v-28h10.4
		c2.1,0,3.9,0.3,5.6,1c1.7,0.7,3.2,1.6,4.4,2.9c1.2,1.2,2.1,2.7,2.8,4.4C412.2,612.4,412.5,614.3,412.5,616.4z M408.7,616.4
		c0-1.7-0.2-3.3-0.7-4.6c-0.5-1.4-1.1-2.5-2-3.4c-0.9-0.9-1.9-1.7-3.1-2.1c-1.2-0.5-2.6-0.7-4.1-0.7h-6.7v21.8h6.7
		c1.5,0,2.9-0.2,4.1-0.7c1.2-0.5,2.3-1.2,3.1-2.1c0.9-0.9,1.5-2.1,2-3.4C408.4,619.6,408.7,618.1,408.7,616.4z"/>
	<path d="M458.5,602.4v28h-3.8v-12.7h-15.1v12.7h-3.8v-28h3.8v12.5h15.1v-12.5H458.5z"/>
	<path d="M495.4,616.4c0,2.1-0.3,4-1,5.8c-0.7,1.8-1.6,3.3-2.8,4.5c-1.2,1.3-2.7,2.2-4.4,2.9s-3.6,1-5.6,1s-3.9-0.3-5.6-1
		s-3.1-1.7-4.4-2.9s-2.1-2.8-2.8-4.5c-0.7-1.8-1-3.7-1-5.8s0.3-4,1-5.8c0.7-1.8,1.6-3.3,2.8-4.5c1.2-1.3,2.7-2.3,4.4-3
		c1.7-0.7,3.6-1.1,5.6-1.1s3.9,0.4,5.6,1.1c1.7,0.7,3.2,1.7,4.4,3c1.2,1.3,2.1,2.8,2.8,4.5C495,612.4,495.4,614.3,495.4,616.4z
		 M491.5,616.4c0-1.7-0.2-3.3-0.7-4.6c-0.5-1.4-1.1-2.5-2-3.5c-0.9-0.9-1.9-1.7-3.1-2.2s-2.6-0.8-4.1-0.8c-1.5,0-2.9,0.3-4.1,0.8
		c-1.2,0.5-2.3,1.2-3.1,2.2c-0.9,0.9-1.5,2.1-2,3.5c-0.5,1.4-0.7,2.9-0.7,4.6c0,1.7,0.2,3.3,0.7,4.6c0.5,1.4,1.1,2.5,2,3.5
		c0.9,0.9,1.9,1.7,3.1,2.2c1.2,0.5,2.6,0.8,4.1,0.8c1.5,0,2.9-0.3,4.1-0.8s2.3-1.2,3.1-2.2c0.9-0.9,1.5-2.1,2-3.5
		S491.5,618.1,491.5,616.4z"/>
	<path d="M533.8,602.4v28h-3.3v-20.6c0-0.3,0-0.6,0-0.9s0-0.6,0.1-1l-9.6,17.5c-0.3,0.6-0.8,0.9-1.4,0.9h-0.5
		c-0.6,0-1.1-0.3-1.4-0.9l-9.8-17.6c0.1,0.7,0.1,1.3,0.1,1.9v20.6h-3.3v-28h2.8c0.3,0,0.6,0,0.8,0.1c0.2,0.1,0.4,0.2,0.5,0.5
		l9.7,17.2c0.2,0.3,0.3,0.6,0.5,1c0.1,0.3,0.3,0.7,0.4,1c0.1-0.4,0.3-0.7,0.4-1c0.1-0.3,0.3-0.7,0.5-1l9.5-17.2
		c0.2-0.3,0.3-0.5,0.5-0.5c0.2-0.1,0.5-0.1,0.8-0.1H533.8z"/>
	<path d="M562.1,627.3l0,3.1h-17.2v-28h17.2v3.1h-13.5v9.3h10.9v3h-10.9v9.5H562.1z"/>
	<path d="M599.5,606.8c-0.1,0.2-0.2,0.3-0.4,0.4c-0.1,0.1-0.3,0.1-0.5,0.1c-0.2,0-0.5-0.1-0.8-0.3c-0.3-0.2-0.7-0.5-1.1-0.7
		s-1-0.5-1.6-0.7c-0.6-0.2-1.4-0.3-2.3-0.3c-0.8,0-1.6,0.1-2.2,0.3c-0.6,0.2-1.2,0.5-1.6,0.9c-0.4,0.4-0.8,0.8-1,1.4
		s-0.3,1.1-0.3,1.7c0,0.8,0.2,1.4,0.6,1.9c0.4,0.5,0.9,1,1.5,1.3c0.6,0.4,1.3,0.7,2.1,0.9s1.6,0.5,2.5,0.8c0.8,0.3,1.7,0.6,2.5,1
		c0.8,0.4,1.5,0.8,2.1,1.4s1.1,1.2,1.5,2c0.4,0.8,0.6,1.8,0.6,2.9c0,1.2-0.2,2.4-0.6,3.4c-0.4,1.1-1,2-1.8,2.8s-1.8,1.4-2.9,1.9
		c-1.2,0.5-2.5,0.7-4,0.7c-1.8,0-3.5-0.3-5-1c-1.5-0.7-2.8-1.5-3.8-2.7l1.1-1.8c0.1-0.1,0.2-0.3,0.4-0.4s0.3-0.1,0.5-0.1
		c0.2,0,0.4,0.1,0.6,0.2c0.2,0.1,0.5,0.3,0.7,0.5c0.3,0.2,0.6,0.4,0.9,0.7c0.4,0.2,0.8,0.5,1.2,0.7s1,0.4,1.5,0.5
		c0.6,0.1,1.2,0.2,1.9,0.2c0.9,0,1.7-0.1,2.4-0.4c0.7-0.2,1.3-0.6,1.8-1s0.9-1,1.1-1.6c0.3-0.6,0.4-1.3,0.4-2.1
		c0-0.8-0.2-1.5-0.6-2.1c-0.4-0.5-0.9-1-1.5-1.4c-0.6-0.4-1.3-0.7-2.1-0.9c-0.8-0.3-1.6-0.5-2.5-0.8s-1.7-0.6-2.5-0.9
		c-0.8-0.4-1.5-0.8-2.1-1.4c-0.6-0.6-1.1-1.3-1.5-2.1s-0.6-1.9-0.6-3.1c0-1,0.2-1.9,0.6-2.9c0.4-0.9,0.9-1.7,1.7-2.5
		c0.7-0.7,1.6-1.3,2.7-1.7s2.3-0.6,3.7-0.6c1.6,0,3,0.2,4.3,0.7c1.3,0.5,2.4,1.2,3.4,2.1L599.5,606.8z"/>
	<path d="M629.2,605.6h-9.1v24.8h-3.8v-24.8h-9.1v-3.2h21.9V605.6z"/>
	<path d="M657.3,630.4h-2.9c-0.3,0-0.6-0.1-0.8-0.3c-0.2-0.2-0.4-0.4-0.5-0.6l-2.6-6.8h-12.6l-2.6,6.8c-0.1,0.2-0.2,0.4-0.4,0.6
		c-0.2,0.2-0.5,0.3-0.8,0.3h-2.9l11.2-28h3.8L657.3,630.4z M649.4,620l-4.4-11.4c-0.1-0.3-0.3-0.7-0.4-1.2c-0.1-0.4-0.3-0.9-0.4-1.4
		c-0.3,1.1-0.6,1.9-0.8,2.6l-4.4,11.4H649.4z"/>
	<path d="M686.9,616.9v10.7c-1.4,1-2.9,1.8-4.5,2.3s-3.3,0.8-5.2,0.8c-2.3,0-4.3-0.3-6.1-1s-3.4-1.7-4.6-2.9c-1.3-1.3-2.3-2.8-3-4.5
		c-0.7-1.8-1-3.7-1-5.8c0-2.1,0.3-4.1,1-5.8c0.7-1.8,1.6-3.3,2.9-4.5c1.2-1.3,2.7-2.2,4.5-2.9c1.8-0.7,3.7-1,5.9-1
		c1.1,0,2.1,0.1,3.1,0.2c0.9,0.2,1.8,0.4,2.6,0.7c0.8,0.3,1.6,0.7,2.2,1.1c0.7,0.4,1.3,0.9,1.9,1.5l-1.1,1.7
		c-0.2,0.3-0.4,0.4-0.7,0.5c-0.3,0.1-0.6,0-0.9-0.2c-0.3-0.2-0.7-0.4-1.1-0.7c-0.4-0.3-0.9-0.5-1.5-0.8s-1.3-0.4-2-0.6
		c-0.8-0.2-1.7-0.3-2.8-0.3c-1.6,0-3,0.3-4.3,0.8c-1.3,0.5-2.4,1.2-3.3,2.2c-0.9,1-1.6,2.1-2.1,3.5s-0.7,2.9-0.7,4.6
		c0,1.8,0.3,3.3,0.8,4.7c0.5,1.4,1.2,2.6,2.1,3.5c0.9,1,2.1,1.7,3.4,2.2c1.3,0.5,2.8,0.8,4.5,0.8c1.3,0,2.5-0.1,3.5-0.4s2-0.7,3-1.2
		v-6.2h-4.4c-0.2,0-0.4-0.1-0.6-0.2s-0.2-0.3-0.2-0.5v-2.1H686.9z"/>
	<path d="M700.4,630.4h-3.8v-28h3.8V630.4z"/>
	<path d="M734.1,602.4v28h-1.9c-0.3,0-0.5-0.1-0.8-0.2c-0.2-0.1-0.4-0.3-0.6-0.5l-16.2-21.1c0,0.3,0,0.6,0.1,1s0,0.6,0,0.9v19.9
		h-3.3v-28h2c0.2,0,0.3,0,0.4,0s0.2,0.1,0.3,0.1s0.2,0.1,0.3,0.2s0.2,0.2,0.3,0.3l16.2,21.1c0-0.3,0-0.7-0.1-1c0-0.3,0-0.6,0-0.9
		v-19.8H734.1z"/>
	<path d="M767.9,616.9v10.7c-1.4,1-2.9,1.8-4.5,2.3s-3.3,0.8-5.2,0.8c-2.3,0-4.3-0.3-6.1-1s-3.4-1.7-4.6-2.9c-1.3-1.3-2.3-2.8-3-4.5
		c-0.7-1.8-1-3.7-1-5.8c0-2.1,0.3-4.1,1-5.8c0.7-1.8,1.6-3.3,2.9-4.5c1.2-1.3,2.7-2.2,4.5-2.9c1.8-0.7,3.7-1,5.9-1
		c1.1,0,2.1,0.1,3.1,0.2c0.9,0.2,1.8,0.4,2.6,0.7c0.8,0.3,1.6,0.7,2.2,1.1c0.7,0.4,1.3,0.9,1.9,1.5l-1.1,1.7
		c-0.2,0.3-0.4,0.4-0.7,0.5c-0.3,0.1-0.6,0-0.9-0.2c-0.3-0.2-0.7-0.4-1.1-0.7c-0.4-0.3-0.9-0.5-1.5-0.8s-1.3-0.4-2-0.6
		c-0.8-0.2-1.7-0.3-2.8-0.3c-1.6,0-3,0.3-4.3,0.8c-1.3,0.5-2.4,1.2-3.3,2.2c-0.9,1-1.6,2.1-2.1,3.5s-0.7,2.9-0.7,4.6
		c0,1.8,0.3,3.3,0.8,4.7c0.5,1.4,1.2,2.6,2.1,3.5c0.9,1,2.1,1.7,3.4,2.2c1.3,0.5,2.8,0.8,4.5,0.8c1.3,0,2.5-0.1,3.5-0.4s2-0.7,3-1.2
		v-6.2h-4.4c-0.2,0-0.4-0.1-0.6-0.2s-0.2-0.3-0.2-0.5v-2.1H767.9z"/>
</g>
</svg>
